<?xml version="1.0" encoding="UTF-8" standalone="no"?>
<!-- Created with Inkscape (http://www.inkscape.org/) -->

<svg
   width="50mm"
   height="61.548553mm"
   viewBox="0 0 50 61.548553"
   version="1.1"
   id="svg1608"
   inkscape:version="1.1.2 (b8e25be833, 2022-02-05)"
   sodipodi:docname="Pic1.svg"
   inkscape:export-filename="C:\Users\reese\Pictures\Games\RareEggCracking1.png"
   inkscape:export-xdpi="203.2"
   inkscape:export-ydpi="203.2"
   xmlns:inkscape="http://www.inkscape.org/namespaces/inkscape"
   xmlns:sodipodi="http://sodipodi.sourceforge.net/DTD/sodipodi-0.dtd"
   xmlns="http://www.w3.org/2000/svg"
   xmlns:svg="http://www.w3.org/2000/svg">
  <sodipodi:namedview
     id="namedview1610"
     pagecolor="#505050"
     bordercolor="#eeeeee"
     borderopacity="1"
     inkscape:pageshadow="0"
     inkscape:pageopacity="0"
     inkscape:pagecheckerboard="0"
     inkscape:document-units="mm"
     showgrid="false"
     inkscape:zoom="0.34307206"
     inkscape:cx="-96.189704"
     inkscape:cy="16.031617"
     inkscape:window-width="1920"
     inkscape:window-height="1001"
     inkscape:window-x="-1929"
     inkscape:window-y="-9"
     inkscape:window-maximized="1"
     inkscape:current-layer="layer1" />
  <defs
     id="defs1605" />
  <g
     inkscape:label="Background"
     inkscape:groupmode="layer"
     id="layer1"
     transform="translate(11.857887,40.775192)"
     style="display:inline">
    <rect
       style="fill:none;stroke-width:0.0492388"
       id="rect1691"
       width="4.9973884"
       height="7.1015515"
       x="25.604803"
       y="-0.40155464" />
    <rect
       style="fill:none;stroke-width:0.0492388"
       id="rect1693"
       width="7.5399199"
       height="5.0850635"
       x="30.602194"
       y="6.6999965" />
    <path
       style="fill:#fff3d3;fill-opacity:1;stroke:none;stroke-width:0.615486;stroke-linecap:butt;stroke-linejoin:miter;stroke-miterlimit:4;stroke-dasharray:none;stroke-opacity:1"
       d="M 33.782422,11.000347 C 25.783511,23.697183 0.31265959,23.448795 -7.791036,11.102589 -18.580183,-5.334969 -4.2530415,-40.403412 13.445029,-40.44449 30.058786,-40.48305 43.460937,-4.3625462 33.782422,11.000347 Z"
       id="path3402"
       sodipodi:nodetypes="ssss" />
  </g>
  <g
     inkscape:groupmode="layer"
     id="layer2"
     inkscape:label="Spots"
     style="display:inline"
     transform="translate(-25)">
    <path
       style="fill:#ff907d;fill-opacity:1;stroke:none;stroke-width:0.492388;stroke-linecap:butt;stroke-linejoin:miter;stroke-miterlimit:4;stroke-dasharray:none;stroke-opacity:1"
       d="m 25.774763,42.828171 c 9.49347,2.468301 4.5806,-3.797388 10.751355,-4.556865 6.170755,-0.759477 7.025167,-7.784646 4.461931,-10.063078 -2.563237,-2.278434 -5.885951,-3.227781 -3.227779,-11.012425 2.658171,-7.7846451 0.01102,-10.8115317 0.01102,-10.8115317 0,0 -1.323562,1.2227225 -3.065735,3.4992262 -1.23239,1.6103685 -2.55679,3.6473525 -3.96193,6.4371405 -1.866931,3.706634 -3.764819,8.625618 -4.614706,13.358502 -0.814817,4.537581 -0.758797,7.33759 -0.758853,8.682187 -5.4e-5,1.286643 0.133675,2.780943 0.404694,4.466844 z"
       id="path7952"
       sodipodi:nodetypes="cssscssssc" />
    <path
       style="fill:#ff907d;fill-opacity:1;stroke:none;stroke-width:0.492388;stroke-linecap:butt;stroke-linejoin:miter;stroke-miterlimit:4;stroke-dasharray:none;stroke-opacity:1"
       d="m 45.91474,14.584639 c -7.363098,0.618915 -3.841012,8.726586 -1.492732,10.59331 5.759526,4.578432 -1.483512,8.450902 1.232027,14.118344 2.265688,4.728591 10.522559,6.504939 13.53821,0.122777 3.015645,-6.382163 -0.05712,-8.309987 2.461129,-13.21211 2.518257,-4.902124 -1.994301,-6.994116 -5.463379,-7.724578 C 53.150523,17.842385 53.27784,13.965723 45.91474,14.584639 Z"
       id="path12618"
       sodipodi:nodetypes="zsssssz" />
    <path
       style="display:inline;fill:#ff907d;fill-opacity:1;stroke:none;stroke-width:0.492388;stroke-linecap:butt;stroke-linejoin:miter;stroke-miterlimit:4;stroke-dasharray:none;stroke-opacity:1"
       d="m 73.52753,42.957952 c 0,0 -4.6518,0.04747 -8.639058,-3.180314 C 60.901216,36.549859 66.977036,23.259001 64.4138,18.037592 61.850563,12.816184 49.509055,8.8289268 56.059546,1.8037593 c 2.095532,1.2146056 4.01852,2.5974432 5.602822,4.2719947 5.706789,6.031873 8.970492,13.942285 10.83644,21.611266 0.660773,2.715764 1.020487,5.394162 1.164547,8.243695 0.145585,2.87967 0.07093,5.922007 -0.135825,7.027237 z"
       id="path13440-1"
       sodipodi:nodetypes="csscsssc" />
    <path
       style="fill:#ff907d;fill-opacity:1;stroke:none;stroke-width:0.492388;stroke-linecap:butt;stroke-linejoin:miter;stroke-miterlimit:4;stroke-dasharray:none;stroke-opacity:1"
       d="m 69.208001,53.638103 c 0,0 -1.74792,-6.162915 -8.591589,-3.607518 -3.571902,1.333732 -9.890789,1.334119 -15.284485,-1.424019 -8.354255,-4.272061 -11.771904,1.613889 -12.436447,7.404906 5.134673,3.619648 12.128637,5.260087 17.755054,5.163616 8.728528,-0.149659 15.63478,-4.012099 18.557467,-7.536985 z"
       id="path14832"
       sodipodi:nodetypes="csscsc" />
  </g>
  <g
     inkscape:groupmode="layer"
     id="layer4"
     inkscape:label="Shadows"
     style="display:inline"
     transform="translate(-25)">
    <path
       style="fill:#ff664b;fill-opacity:1;stroke:none;stroke-width:0.0651388px;stroke-linecap:butt;stroke-linejoin:miter;stroke-opacity:1"
       d="m 69.208001,53.638103 c 0,0 -14.58453,4.174765 -28.344555,-0.874735 -13.665274,-5.01473 -14.097083,-25.97891 -7.249928,-41.418573 l -4.065973,7.270332 -2.781182,8.169331 -1.074063,5.370318 -0.537032,6.444382 1.141192,7.585573 1.525188,3.866569 2.435422,3.249101 2.63841,2.711071 5.954098,3.397665 6.51151,1.678224 5.77309,0.134257 4.56477,-0.53703 4.229127,-0.872678 6.18409,-3.108923 z"
       id="path888"
       sodipodi:nodetypes="cscccccccccccccccc" />
    <path
       style="fill:#e9c569;fill-opacity:1;stroke:none;stroke-width:0.0651388px;stroke-linecap:butt;stroke-linejoin:miter;stroke-opacity:1"
       d="M 35.438266,49.393186 C 33.656688,47.56833 32.33387,45.24487 31.284921,43.021901 c -1.419139,0.408483 -3.168742,0.246958 -5.510157,-0.19373 l 0.521696,3.35656 1.525188,3.866571 2.435422,3.249099 2.63841,2.711071 c 0.644122,-3.764319 0.755411,-3.837737 2.542786,-6.618286 z"
       id="path888-2"
       sodipodi:nodetypes="cccccccc" />
  </g>
  <g
     inkscape:groupmode="layer"
     id="layer5"
     inkscape:label="Highlights"
     transform="translate(-25)">
    <path
       style="fill:#ffffff;fill-opacity:1;stroke:none;stroke-width:0.0651388px;stroke-linecap:butt;stroke-linejoin:miter;stroke-opacity:1"
       d="M 56.724088,4.2957952 C 52.257589,1.5198427 49.959083,1.9224051 46.803412,2.7056389 44.162502,3.3611098 43.796733,5.4520379 46.13887,4.6043327 53.830637,1.820399 60.789978,9.660838 63.231947,12.050738 c 0.484416,0.474089 1.500059,1.736476 1.395453,0.670511 -0.104603,-1.065965 -3.436812,-5.6495013 -7.903312,-8.4254538 z"
       id="path5378"
       sodipodi:nodetypes="zssszz" />
    <path
       style="fill:#ffdbd5;fill-opacity:1;stroke:none;stroke-width:0.0651388px;stroke-linecap:butt;stroke-linejoin:miter;stroke-opacity:1"
       d="m 54.991531,3.2989809 -0.76362,1.8088189 c 3.390584,1.933521 5.775329,3.9652007 8.018491,6.3720142 2.243161,2.406813 4.402708,5.164288 8.191964,12.771851 C 70.270812,23.280338 68.30259,17.117656 63.424352,10.514296 61.052648,7.3038706 58.556093,5.0833077 54.991531,3.2989809 Z"
       id="path5378-9"
       sodipodi:nodetypes="cczcsc" />
  </g>
  <g
     inkscape:groupmode="layer"
     id="layer6"
     inkscape:label="Crack"
     style="display:none"
     transform="translate(-25)">
    <path
       style="fill:none;stroke:#000000;stroke-width:2.5;stroke-linecap:butt;stroke-linejoin:miter;stroke-miterlimit:4;stroke-dasharray:none;stroke-opacity:1"
       d="m 27.812009,130.60736 22.716295,44.34496 27.36471,-39.21796 38.560896,47.4299 26.60702,-53.21404 36.63285,46.27308 21.2085,-70.18083 22.75092,47.81551"
       id="path21571"
       inkscape:export-filename="C:\Users\reese\Pictures\Games\EggCracking2.png"
       inkscape:export-xdpi="203.2"
       inkscape:export-ydpi="203.2" />
  </g>
  <g
     inkscape:groupmode="layer"
     id="layer3"
     inkscape:label="Outline"
     style="display:inline"
     transform="translate(-25)">
    <path
       style="fill:none;fill-opacity:1;stroke:#000000;stroke-width:0.61601;stroke-linecap:butt;stroke-linejoin:miter;stroke-miterlimit:4;stroke-dasharray:none;stroke-opacity:1"
       d="M 70.660559,51.791176 C 62.653981,64.497464 37.158709,64.248891 29.047247,51.893492 18.247755,35.443696 32.588631,0.34914493 50.303671,0.30803586 66.933356,0.26944551 80.348353,36.416843 70.660559,51.791176 Z"
       id="path3402-5"
       sodipodi:nodetypes="ssss" />
    <path
       style="fill:none;fill-opacity:1;stroke:#060000;stroke-width:0.492388;stroke-linecap:butt;stroke-linejoin:miter;stroke-miterlimit:4;stroke-dasharray:none;stroke-opacity:1"
       d="m 25.774759,42.828168 c 9.49347,2.468302 4.580599,-3.797388 10.751355,-4.556865 6.170755,-0.759477 7.025166,-7.784646 4.461931,-10.063077 -2.563239,-2.278434 -5.885952,-3.227781 -3.227781,-11.012423 2.658171,-7.7846449 0.01103,-10.8115315 0.01103,-10.8115315 0,0 -1.32356,1.2227225 -3.065733,3.4992262 -1.232392,1.6103693 -2.556791,3.6473523 -3.961931,6.4371403 -1.866931,3.706635 -3.764819,8.625615 -4.614706,13.3585 -0.814817,4.53758 -0.758797,7.337589 -0.758853,8.682186 -5.4e-5,1.286643 0.133675,2.780943 0.404694,4.466844 z"
       id="path7952-4"
       sodipodi:nodetypes="cssscssssc" />
    <path
       style="display:inline;fill:none;stroke:#000000;stroke-width:0.492388;stroke-linecap:butt;stroke-linejoin:miter;stroke-miterlimit:4;stroke-dasharray:none;stroke-opacity:1"
       d="m 56.059546,1.8037593 c -6.550494,7.0251675 5.791017,11.0124247 8.354254,16.2338327 2.563236,5.221409 -3.512584,18.512267 0.474672,21.740046 3.987258,3.22778 8.828928,3.22778 8.828928,3.22778"
       id="path13440-1-6" />
    <path
       style="display:inline;fill:none;fill-opacity:1;stroke:#000000;stroke-width:0.492388;stroke-linecap:butt;stroke-linejoin:miter;stroke-miterlimit:4;stroke-dasharray:none;stroke-opacity:1"
       d="m 45.91474,14.584639 c -7.370369,0.525283 -3.951615,8.677064 -1.62725,10.573482 5.70087,4.651261 -1.590799,8.431369 1.052487,14.132867 2.20541,4.757006 10.439038,6.638144 13.535561,0.29483 3.096517,-6.343322 0.0485,-8.310042 2.628854,-13.179761 2.580354,-4.869728 -1.90525,-7.018903 -5.364766,-7.793394 -3.031089,-0.67858 -2.854514,-4.553308 -10.224886,-4.028024 z"
       id="path12618-4"
       sodipodi:nodetypes="zsssssz" />
    <path
       style="display:inline;fill:none;stroke:#000000;stroke-width:0.492388;stroke-linecap:butt;stroke-linejoin:miter;stroke-miterlimit:4;stroke-dasharray:none;stroke-opacity:1"
       d="m 32.89548,56.011472 c 0.664543,-5.791017 4.082191,-11.676967 12.436447,-7.404906 5.393696,2.758138 11.712583,2.757751 15.284485,1.424019 6.843669,-2.555397 8.591589,3.607518 8.591589,3.607518"
       id="path14832-0"
       sodipodi:nodetypes="cssc" />
  </g>
</svg>
