<?xml version="1.0" encoding="UTF-8" standalone="no"?>
<!-- Created with Inkscape (http://www.inkscape.org/) -->

<svg
   width="250mm"
   height="250mm"
   viewBox="0 0 250 250"
   version="1.1"
   id="svg1608"
   inkscape:version="1.1.2 (b8e25be833, 2022-02-05)"
   sodipodi:docname="Egg.svg"
   inkscape:export-filename="C:\Users\reese\Pictures\Games\RareEggCracking1.png"
   inkscape:export-xdpi="203.2"
   inkscape:export-ydpi="203.2"
   xmlns:inkscape="http://www.inkscape.org/namespaces/inkscape"
   xmlns:sodipodi="http://sodipodi.sourceforge.net/DTD/sodipodi-0.dtd"
   xmlns="http://www.w3.org/2000/svg"
   xmlns:svg="http://www.w3.org/2000/svg">
  <sodipodi:namedview
     id="namedview1610"
     pagecolor="#505050"
     bordercolor="#eeeeee"
     borderopacity="1"
     inkscape:pageshadow="0"
     inkscape:pageopacity="0"
     inkscape:pagecheckerboard="0"
     inkscape:document-units="mm"
     showgrid="false"
     inkscape:zoom="0.34307206"
     inkscape:cx="427.02399"
     inkscape:cy="16.031617"
     inkscape:window-width="1920"
     inkscape:window-height="1001"
     inkscape:window-x="-1929"
     inkscape:window-y="-9"
     inkscape:window-maximized="1"
     inkscape:current-layer="layer4" />
  <defs
     id="defs1605" />
  <g
     inkscape:label="Background"
     inkscape:groupmode="layer"
     id="layer1"
     transform="translate(36.857887,40.775192)"
     style="display:inline"
     sodipodi:insensitive="true">
    <rect
       style="fill:none;stroke-width:0.2"
       id="rect1691"
       width="20.298561"
       height="28.845324"
       x="140.30934"
       y="123.21582" />
    <rect
       style="fill:none;stroke-width:0.2"
       id="rect1693"
       width="30.625902"
       height="20.654684"
       x="160.60791"
       y="152.06114" />
    <path
       style="fill:#fff3d3;fill-opacity:1;stroke:none;stroke-width:2.5;stroke-linecap:butt;stroke-linejoin:miter;stroke-miterlimit:4;stroke-dasharray:none;stroke-opacity:1"
       d="M 173.52547,169.52845 C 141.03522,221.10089 37.576852,220.09198 4.660986,169.94374 -39.162737,103.17711 19.031732,-39.265082 90.918358,-39.431936 158.40068,-39.588567 212.83799,107.12693 173.52547,169.52845 Z"
       id="path3402"
       sodipodi:nodetypes="ssss" />
  </g>
  <g
     inkscape:groupmode="layer"
     id="layer2"
     inkscape:label="Spots"
     style="display:inline"
     sodipodi:insensitive="true">
    <path
       style="fill:#ff907d;fill-opacity:1;stroke:none;stroke-width:2;stroke-linecap:butt;stroke-linejoin:miter;stroke-miterlimit:4;stroke-dasharray:none;stroke-opacity:1"
       d="M 28.14696,173.96092 C 66.707859,183.98675 46.752594,158.53656 71.817178,155.45169 96.88176,152.36682 100.35224,123.83175 89.9408,114.57714 79.529356,105.32252 66.033043,101.46643 76.830096,69.846497 c 10.79705,-31.619936 0.04478,-43.914647 0.04478,-43.914647 0,0 -5.376088,4.966496 -12.452507,14.213276 -5.005765,6.541051 -10.385256,14.814939 -16.092704,26.146597 -7.583162,15.055731 -15.292066,35.035827 -18.744166,54.260017 -3.309652,18.4309 -3.082109,29.80407 -3.082338,35.2656 -2.19e-4,5.22613 0.542966,11.29573 1.643803,18.14358 z"
       id="path7952"
       sodipodi:nodetypes="cssscssssc" />
    <path
       style="fill:#ff907d;fill-opacity:1;stroke:none;stroke-width:2;stroke-linecap:butt;stroke-linejoin:miter;stroke-miterlimit:4;stroke-dasharray:none;stroke-opacity:1"
       d="m 109.9522,59.240382 c -29.907679,2.513931 -15.601554,35.445944 -6.06323,43.028268 23.39424,18.59683 -6.02578,34.32616 5.00429,57.34637 9.20285,19.20675 42.74089,26.42198 54.98996,0.4987 12.24905,-25.92329 -0.23202,-33.75379 9.9967,-53.6654 C 184.10866,86.536707 165.7794,78.039383 151.68858,75.072368 139.34275,72.472807 139.85989,56.72645 109.9522,59.240382 Z"
       id="path12618"
       sodipodi:nodetypes="zsssssz" />
    <path
       style="display:inline;fill:#ff907d;fill-opacity:1;stroke:none;stroke-width:2;stroke-linecap:butt;stroke-linejoin:miter;stroke-miterlimit:4;stroke-dasharray:none;stroke-opacity:1"
       d="m 222.11077,174.48807 c 0,0 -18.89484,0.1928 -35.09042,-12.91791 -16.19557,-13.1107 8.4834,-67.09596 -1.92804,-88.304454 -10.41144,-21.208494 -60.5406,-37.404071 -33.93359,-65.939135 8.5117,4.933526 16.32256,10.550383 22.75773,17.352133 23.18003,24.500468 36.43665,56.631247 44.01582,87.781376 2.68395,11.03098 4.14505,21.91019 4.7302,33.48452 0.59134,11.69674 0.2881,24.05421 -0.5517,28.54347 z"
       id="path13440-1"
       sodipodi:nodetypes="csscsssc" />
    <path
       style="fill:#ff907d;fill-opacity:1;stroke:none;stroke-width:2;stroke-linecap:butt;stroke-linejoin:miter;stroke-miterlimit:4;stroke-dasharray:none;stroke-opacity:1"
       d="m 204.56556,217.86907 c 0,0 -7.09976,-25.03274 -34.89761,-14.65314 -14.50847,5.4174 -40.17474,5.41897 -62.08304,-5.78413 -33.933595,-17.3524 -47.815517,6.55535 -50.51478,30.0775 20.856188,14.70241 49.26451,21.3656 72.11808,20.97375 35.45383,-0.60789 63.50588,-16.29648 75.37735,-30.61398 z"
       id="path14832"
       sodipodi:nodetypes="csscsc" />
  </g>
  <g
     inkscape:groupmode="layer"
     id="layer4"
     inkscape:label="Shadows"
     style="display:inline"
     sodipodi:insensitive="true">
    <path
       style="fill:#ff664b;fill-opacity:1;stroke:none;stroke-width:0.264583px;stroke-linecap:butt;stroke-linejoin:miter;stroke-opacity:1"
       d="m 204.56556,217.86907 c 0,0 -59.23994,16.9572 -115.130876,-3.55303 C 33.928607,193.94704 32.174673,108.79402 59.986679,46.080675 l -16.515307,29.530879 -11.296699,33.182466 -4.362667,21.81334 -2.181334,26.17601 4.635334,30.81134 6.195057,15.70536 9.89228,13.19731 10.716787,11.01192 24.184554,13.80075 26.448676,6.81667 23.44933,0.54533 18.54134,-2.18133 17.17801,-3.54467 25.11875,-12.62793 z"
       id="path888"
       sodipodi:nodetypes="cscccccccccccccccc" />
    <path
       style="fill:#e9c569;fill-opacity:1;stroke:none;stroke-width:0.264583px;stroke-linecap:butt;stroke-linejoin:miter;stroke-opacity:1"
       d="m 67.398501,200.62692 c -7.236474,-7.41226 -12.609539,-16.84977 -16.870197,-25.8791 -5.764304,1.65919 -12.870904,1.0031 -22.38134,-0.7869 l 2.119042,13.63379 6.195057,15.70537 9.89228,13.1973 10.716787,11.01192 c 2.616316,-15.29004 3.068351,-15.58825 10.328371,-26.88238 z"
       id="path888-2"
       sodipodi:nodetypes="cccccccc" />
  </g>
  <g
     inkscape:groupmode="layer"
     id="layer5"
     inkscape:label="Highlights"
     sodipodi:insensitive="true">
    <path
       style="fill:#ffffff;fill-opacity:1;stroke:none;stroke-width:0.264583px;stroke-linecap:butt;stroke-linejoin:miter;stroke-opacity:1"
       d="M 153.85798,17.448807 C 135.7158,6.1733487 126.37965,7.8084905 113.56184,10.989856 c -10.72694,2.662414 -12.21263,11.155417 -2.69926,7.712179 31.24268,-11.3078766 59.51037,20.538685 69.42924,30.246061 1.96762,1.925671 6.09299,7.053279 5.6681,2.723506 -0.42488,-4.329773 -13.95976,-22.947337 -32.10194,-34.222795 z"
       id="path5378"
       sodipodi:nodetypes="zssszz" />
    <path
       style="fill:#ffdbd5;fill-opacity:1;stroke:none;stroke-width:0.264583px;stroke-linecap:butt;stroke-linejoin:miter;stroke-opacity:1"
       d="m 146.82062,13.399913 -3.1017,7.347122 c 13.77199,7.853641 23.45843,16.105987 32.56978,25.882062 9.11135,9.776075 17.88307,20.976481 33.2744,51.877141 C 208.88252,94.56087 200.88793,69.529076 181.07334,42.707325 171.43987,29.66711 161.29928,20.647552 146.82062,13.399913 Z"
       id="path5378-9"
       sodipodi:nodetypes="cczcsc" />
  </g>
  <g
     inkscape:groupmode="layer"
     id="layer6"
     inkscape:label="Crack"
     style="display:none"
     sodipodi:insensitive="true">
    <path
       style="fill:none;stroke:#000000;stroke-width:2.5;stroke-linecap:butt;stroke-linejoin:miter;stroke-miterlimit:4;stroke-dasharray:none;stroke-opacity:1"
       d="m 27.812009,130.60736 22.716295,44.34496 27.36471,-39.21796 38.560896,47.4299 26.60702,-53.21404 36.63285,46.27308 21.2085,-70.18083 22.75092,47.81551"
       id="path21571"
       inkscape:export-filename="C:\Users\reese\Pictures\Games\EggCracking2.png"
       inkscape:export-xdpi="203.2"
       inkscape:export-ydpi="203.2" />
  </g>
  <g
     inkscape:groupmode="layer"
     id="layer3"
     inkscape:label="Outline"
     style="display:inline"
     sodipodi:insensitive="true">
    <path
       style="fill:none;fill-opacity:1;stroke:#000000;stroke-width:2.50213;stroke-linecap:butt;stroke-linejoin:miter;stroke-miterlimit:4;stroke-dasharray:none;stroke-opacity:1"
       d="M 210.46561,210.36716 C 177.94422,261.97799 74.386658,260.96833 41.439243,210.78275 -2.4264982,143.96641 55.823759,1.4181688 127.77931,1.2511906 195.32633,1.094443 249.81582,147.91917 210.46561,210.36716 Z"
       id="path3402-5"
       sodipodi:nodetypes="ssss" />
    <path
       style="fill:none;fill-opacity:1;stroke:#060000;stroke-width:2;stroke-linecap:butt;stroke-linejoin:miter;stroke-miterlimit:4;stroke-dasharray:none;stroke-opacity:1"
       d="m 28.14694,173.96091 c 38.560902,10.02583 18.605634,-15.42436 43.670222,-18.50923 25.06458,-3.08487 28.535058,-31.61994 18.12362,-40.87455 -10.41145,-9.25462 -23.90776,-13.11071 -13.11071,-44.730631 10.79705,-31.619937 0.0448,-43.914648 0.0448,-43.914648 0,0 -5.37608,4.966496 -12.4525,14.213276 -5.00577,6.541051 -10.38526,14.814939 -16.092707,26.146597 -7.583162,15.055735 -15.292066,35.035816 -18.744166,54.260006 -3.309652,18.4309 -3.082109,29.80407 -3.082338,35.2656 -2.19e-4,5.22613 0.542966,11.29573 1.643803,18.14358 z"
       id="path7952-4"
       sodipodi:nodetypes="cssscssssc" />
    <path
       style="display:inline;fill:none;stroke:#000000;stroke-width:2;stroke-linecap:butt;stroke-linejoin:miter;stroke-miterlimit:4;stroke-dasharray:none;stroke-opacity:1"
       d="m 151.15872,7.326571 c -26.60702,28.535064 23.52215,44.730641 33.93359,65.939135 10.41144,21.208495 -14.26753,75.193754 1.92804,88.304454 16.19558,13.11071 35.86164,13.11071 35.86164,13.11071"
       id="path13440-1-6" />
    <path
       style="display:inline;fill:none;fill-opacity:1;stroke:#000000;stroke-width:2;stroke-linecap:butt;stroke-linejoin:miter;stroke-miterlimit:4;stroke-dasharray:none;stroke-opacity:1"
       d="m 109.9522,59.240382 c -29.937214,2.133614 -16.050802,35.244794 -6.60962,42.947728 23.15599,18.89265 -6.461558,34.24682 4.27503,57.40536 8.95801,19.32217 42.40164,26.96304 54.9792,1.19755 12.57754,-25.76552 0.19699,-33.75401 10.67797,-53.534 C 183.75575,87.476993 165.53597,78.747401 151.48399,75.601547 139.17221,72.845268 139.88943,57.106765 109.9522,59.240382 Z"
       id="path12618-4"
       sodipodi:nodetypes="zsssssz" />
    <path
       style="display:inline;fill:none;stroke:#000000;stroke-width:2;stroke-linecap:butt;stroke-linejoin:miter;stroke-miterlimit:4;stroke-dasharray:none;stroke-opacity:1"
       d="m 57.07013,227.5093 c 2.69926,-23.52215 16.58118,-47.4299 50.51478,-30.0775 21.9083,11.2031 47.57457,11.20153 62.08304,5.78413 27.79785,-10.3796 34.89761,14.65314 34.89761,14.65314"
       id="path14832-0"
       sodipodi:nodetypes="cssc" />
  </g>
</svg>
